<svg width="14" height="15" viewBox="0 0 14 15" fill="none" xmlns="http://www.w3.org/2000/svg">
<path d="M12.5996 6.4082L13.2441 7.05273C13.5078 7.3457 13.5078 7.78516 13.2441 8.04883L7.56055 13.7324C7.26758 14.0254 6.82812 14.0254 6.56445 13.7324L0.851562 8.04883C0.587891 7.78516 0.587891 7.31641 0.851562 7.05273L1.49609 6.4082C1.78906 6.11523 2.22852 6.14453 2.52148 6.4082L5.89062 9.95312V1.51562C5.89062 1.13477 6.18359 0.8125 6.59375 0.8125H7.53125C7.91211 0.8125 8.23438 1.13477 8.23438 1.51562V9.95312L11.5742 6.4082C11.8672 6.14453 12.3066 6.11523 12.5996 6.4082Z" fill="white"/>
</svg>
