<svg width="56" height="56" viewBox="0 0 56 56" fill="none" xmlns="http://www.w3.org/2000/svg">
<rect x="0.5" y="0.5" width="55" height="55" rx="15.5" stroke="black"/>
<path d="M28.0001 12.8284C19.41 12.8284 12.4444 19.7927 12.4444 28.384C12.4444 35.257 16.9016 41.0878 23.0824 43.1448C23.8597 43.2887 24.1452 42.8073 24.1452 42.3964C24.1452 42.0255 24.1307 40.8 24.1241 39.5003C19.7964 40.4412 18.8832 37.6649 18.8832 37.6649C18.1756 35.8669 17.1561 35.3889 17.1561 35.3889C15.7448 34.4233 17.2625 34.4431 17.2625 34.4431C18.8246 34.5529 19.6471 36.0462 19.6471 36.0462C21.0345 38.4243 23.2861 37.7367 24.1738 37.3394C24.3133 36.3339 24.7165 35.6477 25.1614 35.2593C21.7063 34.8658 18.0741 33.532 18.0741 27.5716C18.0741 25.8733 18.6818 24.4856 19.677 23.3963C19.5154 23.0044 18.983 21.4223 19.8276 19.2796C19.8276 19.2796 21.1339 18.8615 24.1065 20.8741C25.3473 20.5294 26.6781 20.3566 28.0001 20.3508C29.3221 20.3566 30.6538 20.5294 31.897 20.8741C34.8661 18.8615 36.1705 19.2796 36.1705 19.2796C37.0172 21.4223 36.4846 23.0044 36.323 23.3963C37.3204 24.4856 37.9239 25.8732 37.9239 27.5716C37.9239 33.5462 34.2849 34.8618 30.8211 35.2469C31.379 35.7296 31.8761 36.6763 31.8761 38.1275C31.8761 40.2088 31.8581 41.884 31.8581 42.3964C31.8581 42.8104 32.1381 43.2954 32.9267 43.1427C39.104 41.0835 43.5556 35.2547 43.5556 28.384C43.5556 19.7927 36.5909 12.8284 28.0001 12.8284Z" fill="white"/>
<path d="M18.2705 34.9877C18.2364 35.0649 18.1146 35.0881 18.004 35.0351C17.8911 34.9844 17.8277 34.879 17.8643 34.8014C17.8978 34.7218 18.0196 34.6996 18.1322 34.7531C18.2453 34.8037 18.3097 34.9101 18.2705 34.9877ZM19.0357 35.6704C18.9615 35.7392 18.8165 35.7072 18.718 35.5985C18.6163 35.4901 18.5972 35.3451 18.6725 35.2752C18.749 35.2065 18.8897 35.2386 18.9917 35.3472C19.0934 35.4569 19.1132 35.601 19.0356 35.6705L19.0357 35.6704ZM19.5607 36.5439C19.4653 36.6101 19.3094 36.548 19.2131 36.4097C19.1178 36.2715 19.1178 36.1055 19.2152 36.0391C19.3118 35.9726 19.4653 36.0323 19.5629 36.1696C19.658 36.3103 19.658 36.4762 19.5606 36.544L19.5607 36.5439ZM20.4484 37.5556C20.3631 37.6496 20.1815 37.6244 20.0486 37.4961C19.9127 37.3707 19.8747 37.1927 19.9602 37.0986C20.0465 37.0044 20.2291 37.0309 20.3631 37.1582C20.4981 37.2833 20.5394 37.4627 20.4485 37.5556H20.4484ZM21.5956 37.8972C21.5582 38.019 21.3832 38.0744 21.2071 38.0227C21.0311 37.9693 20.916 37.8266 20.9515 37.7035C20.9881 37.5809 21.1638 37.5232 21.3413 37.5786C21.517 37.6316 21.6324 37.7733 21.5958 37.8972H21.5956ZM22.9015 38.0421C22.9059 38.1704 22.7565 38.2768 22.5715 38.2791C22.3855 38.2831 22.235 38.1793 22.2331 38.0532C22.2331 37.9236 22.3791 37.8182 22.5651 37.8151C22.75 37.8115 22.9015 37.9146 22.9015 38.0421ZM24.1842 37.9929C24.2064 38.1181 24.0779 38.2466 23.8943 38.2808C23.7137 38.3137 23.5465 38.2365 23.5235 38.1124C23.501 37.9841 23.6321 37.8556 23.8123 37.8223C23.9962 37.7904 24.1608 37.8656 24.1842 37.9929Z" fill="white"/>
</svg>
