<svg width="53" height="21" viewBox="0 0 53 21" fill="none" xmlns="http://www.w3.org/2000/svg">
<path d="M24.7155 10.0685V16.1095H22.7857V1.19094H27.9039C28.5148 1.17827 29.1222 1.28587 29.6911 1.50754C30.2599 1.72921 30.7789 2.06056 31.2181 2.48246C31.6618 2.87875 32.0149 3.36476 32.2536 3.90781C32.4924 4.45087 32.6114 5.0384 32.6026 5.63091C32.6153 6.22659 32.4981 6.81796 32.2592 7.36447C32.0202 7.91099 31.6651 8.39974 31.2181 8.79721C30.3232 9.64474 29.2184 10.0681 27.9039 10.0673H24.7155V10.0685ZM24.7155 3.02764V8.23537H27.9519C28.3066 8.24582 28.6597 8.18261 28.9885 8.04979C29.3173 7.91697 29.6146 7.71746 29.8613 7.46403C30.1067 7.22708 30.3018 6.94367 30.435 6.63054C30.5682 6.31742 30.6368 5.98095 30.6368 5.64103C30.6368 5.30111 30.5682 4.96464 30.435 4.65151C30.3018 4.33839 30.1067 4.05498 29.8613 3.81802C29.6177 3.55925 29.3214 3.35486 28.9923 3.21839C28.6631 3.08192 28.3084 3.01649 27.9519 3.02645H24.7155V3.02764Z" fill="#5F6368"/>
<path d="M37.0495 5.56885C38.4759 5.56885 39.6018 5.94738 40.4273 6.70443C41.2527 7.46149 41.665 8.49946 41.6642 9.81836V16.1093H39.8184V14.6928H39.7344C38.9354 15.8593 37.8726 16.4426 36.5461 16.4426C35.4138 16.4426 34.4664 16.1093 33.7041 15.4427C33.3383 15.1368 33.0458 14.7536 32.848 14.3212C32.6501 13.8887 32.552 13.4179 32.5606 12.943C32.5606 11.8868 32.9626 11.0468 33.7664 10.4231C34.5703 9.79932 35.6435 9.48665 36.986 9.48507C38.1319 9.48507 39.0756 9.69338 39.8172 10.11V9.67195C39.8193 9.3482 39.7489 9.02802 39.6111 8.73463C39.4732 8.44125 39.2713 8.18201 39.0201 7.97571C38.5097 7.51848 37.8447 7.269 37.1574 7.27699C36.0794 7.27699 35.2264 7.72852 34.5983 8.63159L32.8986 7.56862C33.8336 6.23544 35.2172 5.56885 37.0495 5.56885ZM34.5527 12.9847C34.5515 13.2286 34.6089 13.4692 34.7202 13.6867C34.8315 13.9041 34.9936 14.0919 35.1928 14.2345C35.6196 14.5679 36.1494 14.7446 36.6923 14.7345C37.5067 14.7331 38.2873 14.4112 38.863 13.8393C39.5023 13.2418 39.8219 12.5407 39.8219 11.736C39.2202 11.2599 38.3812 11.0218 37.3048 11.0218C36.5209 11.0218 35.8672 11.2095 35.3438 11.5848C34.8152 11.9657 34.5527 12.4288 34.5527 12.9847Z" fill="#5F6368"/>
<path d="M52.2601 5.90234L45.8162 20.609H43.8241L46.2154 15.4631L41.9782 5.90234H44.0758L47.1383 13.2348H47.1803L50.1589 5.90234H52.2601Z" fill="#5F6368"/>
<path d="M16.9172 8.76609C16.9179 8.18206 16.8682 7.59903 16.7686 7.02344H8.62984V10.3242H13.2913C13.1959 10.8514 12.994 11.354 12.6978 11.8016C12.4016 12.2492 12.0171 12.6326 11.5677 12.9287V15.0713H14.3497C15.9787 13.5798 16.9172 11.3741 16.9172 8.76609Z" fill="#4285F4"/>
<path d="M8.62981 17.1416C10.9588 17.1416 12.9197 16.3821 14.3497 15.0728L11.5677 12.9302C10.7933 13.4515 9.79608 13.7491 8.62981 13.7491C6.37877 13.7491 4.46815 12.2421 3.78493 10.2114H0.918991V12.4195C1.63729 13.839 2.73873 15.0322 4.10034 15.8661C5.46194 16.6999 7.03013 17.1415 8.62981 17.1416Z" fill="#34A853"/>
<path d="M3.7849 10.2113C3.4237 9.1472 3.4237 7.99485 3.7849 6.93074V4.72266H0.91896C0.314699 5.91675 0 7.23463 0 8.57103C0 9.90742 0.314699 11.2253 0.91896 12.4194L3.7849 10.2113Z" fill="#FBBC04"/>
<path d="M8.62981 3.39303C9.86055 3.37306 11.0498 3.83486 11.9404 4.6786L14.4036 2.23245C12.8417 0.775564 10.7725 -0.0242909 8.62981 0.000562301C7.03013 0.000634704 5.46194 0.442244 4.10034 1.27609C2.73873 2.10993 1.63729 3.30319 0.918991 4.72264L3.78493 6.93072C4.46815 4.9 6.37877 3.39303 8.62981 3.39303Z" fill="#EA4335"/>
</svg>
