<svg width="170" height="58" viewBox="0 0 170 58" fill="none" xmlns="http://www.w3.org/2000/svg">
<path d="M159.11 3.15524C162.147 3.15524 164.208 3.7328 165.41 4.92117C166.612 6.10887 167.197 8.1497 167.197 11.16V47.0619C167.197 50.0636 166.614 52.093 165.417 53.2662C164.219 54.4404 162.156 55.0112 159.111 55.0112H10.9666C7.94021 55.0112 5.90038 54.4454 4.73083 53.2815C3.56127 52.1177 2.9928 50.0864 2.9928 47.0714V11.16C2.9928 7.70859 3.36995 5.80754 4.25386 4.80316C5.2434 3.67895 7.37955 3.15524 10.9767 3.15524H159.11ZM159.11 0.828369H10.9767C2.13534 0.828369 0.663666 3.88671 0.663666 11.16V47.0712C0.663666 54.3391 3.69187 57.3381 10.9666 57.3381H159.111C166.391 57.3381 169.526 54.3349 169.526 47.0619V11.16C169.526 3.88671 166.39 0.828369 159.11 0.828369Z" fill="white"/>
<path fill-rule="evenodd" clip-rule="evenodd" d="M44.6889 36.0036C43.8384 37.8869 43.4313 38.7276 42.3365 40.3919C40.8082 42.716 38.6551 45.6098 35.9871 45.634C33.6155 45.656 33.0068 44.0923 29.7891 44.1099C26.5714 44.1274 25.8993 45.6615 23.5278 45.6398C20.8594 45.6154 18.8189 43.0017 17.2908 40.6785C13.0182 34.1807 12.5719 26.555 15.2064 22.5013C17.0794 19.6201 20.0329 17.9336 22.811 17.9336C25.6391 17.9336 27.4171 19.4833 29.7553 19.4833C32.0234 19.4833 33.4063 17.9312 36.6755 17.9312C39.1471 17.9312 41.7658 19.2753 43.632 21.6008C37.5185 24.9478 38.5112 33.6714 44.6889 36.0036Z" fill="white"/>
<path fill-rule="evenodd" clip-rule="evenodd" d="M34.1953 15.3357C35.3825 13.8126 36.2854 11.6606 35.958 9.46216C34.018 9.59562 31.7474 10.829 30.4218 12.4371C29.2188 13.8972 28.2258 16.0623 28.6126 18.1663C30.7309 18.2318 32.9226 16.9678 34.1953 15.3357Z" fill="white"/>
<path fill-rule="evenodd" clip-rule="evenodd" d="M154.448 39.0555H145.858C145.892 40.2189 146.307 41.2391 147.105 41.9084C147.828 42.5101 148.763 42.7845 149.914 42.7845C151.188 42.7845 152.343 42.5689 153.387 42.1567L153.837 44.1391C152.622 44.6732 151.179 44.9284 149.514 44.9284C147.521 44.9284 145.952 44.3432 144.812 43.1696C143.673 41.9962 143.098 40.4192 143.098 38.4434C143.098 36.4976 143.631 34.8853 144.689 33.5907C145.807 32.2157 147.309 31.5284 149.197 31.5284C151.058 31.5284 152.462 32.2153 153.413 33.5904C154.17 34.6881 154.553 36.0944 154.553 37.7014C154.553 38.2095 154.516 38.7231 154.448 39.0555ZM142.242 34.3335C142.075 34.2819 141.634 34.2608 141.318 34.2608C140.311 34.2608 139.524 34.6398 138.975 35.3977C138.497 36.07 138.249 36.9048 138.249 37.9374V44.5403H135.421V35.8667C135.421 34.3923 135.359 33.0721 135.309 31.7425H137.8L137.906 34.4018H137.985C138.284 33.5707 138.759 32.815 139.416 32.3071C140.053 31.8427 140.767 31.5902 141.509 31.5902C141.771 31.5902 142.075 31.574 142.242 31.6087V34.3335ZM131.89 43.0258C130.703 44.329 129.13 44.9815 127.172 44.9815C125.278 44.9815 123.767 44.3551 122.646 43.1013C121.525 41.8512 120.966 40.2648 120.966 38.3604C120.966 36.3675 121.544 34.732 122.701 33.4627C123.86 32.1864 125.416 31.5595 127.377 31.5595C129.275 31.5595 130.794 32.1796 131.942 33.4394C133.035 34.6507 133.583 36.2272 133.583 38.1495C133.583 40.1327 133.021 41.7507 131.89 43.0258ZM120.115 34.0694H117.12V40.2179C117.12 41.8059 117.614 42.593 118.727 42.593C119.239 42.593 119.626 42.5556 119.965 42.4684L120.029 44.6348C119.463 44.8466 118.713 44.9541 117.794 44.9541C116.669 44.9541 115.749 44.6144 115.115 43.9208C114.472 43.2356 114.126 42.0774 114.126 40.4531V34.0694H112.296V31.7425H114.126V29.4628L117.12 28.615V31.7425H120.115V34.0694ZM110.052 43.3905C108.883 44.4337 107.262 44.9521 105.183 44.9521C103.256 44.9521 101.716 44.5797 100.552 43.8414L101.218 41.4583C102.471 42.1965 103.849 42.5711 105.348 42.5711C106.43 42.5711 107.268 42.3249 107.869 41.8431C108.467 41.3593 108.767 40.7109 108.767 39.8885C108.767 39.1745 108.52 38.5649 108.028 38.0676C107.529 37.5743 106.713 37.1186 105.563 36.6909C102.438 35.529 100.873 33.8252 100.873 31.5833C100.873 30.1183 101.419 28.9138 102.526 27.9791C103.63 27.0457 105.092 26.5762 106.915 26.5762C108.54 26.5762 109.893 26.8609 110.973 27.422L110.25 29.7537C109.243 29.2079 108.098 28.9311 106.821 28.9311C105.812 28.9311 105.021 29.1878 104.451 29.6706C103.975 30.1182 103.736 30.6565 103.736 31.2899C103.736 31.9915 104.011 32.5768 104.557 33.0425C105.036 33.4644 105.902 33.9208 107.153 34.4146C108.695 35.0277 109.822 35.7562 110.55 36.5885C111.272 37.4177 111.636 38.4489 111.636 39.6828C111.636 41.203 111.104 42.4423 110.052 43.3905ZM93.5098 43.2907C92.4429 44.416 91.1118 44.9814 89.5282 44.9814C87.8233 44.9814 86.6752 44.3736 85.8433 43.1505V50.025H83.0151V36.0479C83.0151 34.672 82.9624 33.4045 82.8935 31.7425H85.4051L85.5708 33.9032H85.6201C86.581 32.4073 88.0249 31.5823 89.9691 31.5823C91.4898 31.5823 92.7579 32.166 93.7735 33.3695C94.7924 34.5671 95.2993 36.1454 95.2993 38.1038C95.2993 40.2991 94.7043 42.0166 93.5098 43.2907ZM79.3552 43.2907C78.291 44.416 76.962 44.9814 75.3827 44.9814C73.6726 44.9814 72.534 44.3736 71.7022 43.1505V50.025H68.874V36.0479C68.874 34.672 68.8084 33.4045 68.7357 31.7425H71.2542L71.4124 33.9032H71.4623C72.4217 32.4073 73.8684 31.5823 75.8153 31.5823C77.3349 31.5823 78.5996 32.166 79.6219 33.3695C80.6346 34.5671 81.1445 36.1454 81.1445 38.1038C81.1445 40.2991 80.5496 42.0166 79.3552 43.2907ZM64.0447 44.5403L62.3763 39.3879H56.5692L54.9764 44.5403H52.0104L57.7578 26.7563H61.3139L67.0958 44.5403H64.0447ZM148.986 33.5109C148.051 33.5109 147.292 33.9892 146.706 34.7614C146.23 35.3779 145.944 36.0638 145.858 37.061H151.821C151.837 36.0638 151.656 35.407 151.268 34.7857C150.771 33.9942 150.009 33.5109 148.986 33.5109ZM59.4576 29.2494H59.4077C59.2277 30.0804 58.9489 31.1865 58.5564 32.6716L57.0717 37.3935H61.8684L60.3638 32.6716C60.2009 32.1927 59.8971 30.9115 59.4576 29.2494ZM89.0421 33.8292C88.3327 33.8292 87.699 34.0614 87.1222 34.5287C86.5477 35.0029 86.1606 35.6162 85.9828 36.3758C85.8947 36.7318 85.8433 37.0203 85.8433 37.2517V39.3936C85.8433 40.3311 86.1361 41.1238 86.7129 41.7681C87.2861 42.4065 88.039 42.7308 88.9539 42.7308C90.0378 42.7308 90.8783 42.3184 91.4798 41.4866C92.0819 40.6562 92.3852 39.5621 92.3852 38.1989C92.3852 36.9487 92.1009 35.9146 91.5372 35.1046C90.914 34.2608 90.083 33.8292 89.0421 33.8292ZM127.272 33.6512C126.126 33.6512 125.251 34.1591 124.653 35.1819C124.135 36.0234 123.882 37.0512 123.882 38.2664C123.882 39.4509 124.135 40.4606 124.653 41.3043C125.266 42.3251 126.132 42.833 127.251 42.833C128.34 42.833 129.2 42.3181 129.816 41.2724C130.349 40.4182 130.615 39.3932 130.615 38.217C130.615 37.0393 130.36 36.0234 129.85 35.1818C129.241 34.1591 128.387 33.6512 127.272 33.6512ZM74.8836 33.8292C74.178 33.8292 73.5405 34.0614 72.9644 34.5287C72.3886 35.0029 72.0128 35.6162 71.8349 36.3758C71.7479 36.7318 71.7024 37.0203 71.7024 37.2517V39.3936C71.7024 40.3311 71.9862 41.1238 72.5643 41.7681C73.1374 42.4065 73.8864 42.7308 74.8038 42.7308C75.8795 42.7308 76.7255 42.3184 77.3252 41.4866C77.926 40.6562 78.2239 39.5621 78.2239 38.1989C78.2239 36.9487 77.9448 35.9146 77.3784 35.1046C76.7567 34.2608 75.9276 33.8292 74.8836 33.8292Z" fill="white"/>
<path d="M55.7814 19.7493L54.9878 22.3602H53.2501L56.2056 13.147H58.3537L61.3503 22.3602H59.5443L58.7096 19.7493H55.7814ZM58.4223 18.4782L57.6971 16.209C57.5192 15.6485 57.3687 15.0198 57.2318 14.4866H57.2045C57.0676 15.0198 56.9306 15.6623 56.7666 16.209L56.0551 18.4782H58.4223Z" fill="white"/>
<path d="M63.2666 15.7031L64.3476 19.0794C64.5391 19.6673 64.6758 20.2005 64.799 20.7471H64.84C64.9632 20.2005 65.1137 19.6809 65.2916 19.0794L66.3452 15.7031H68.124L65.5789 22.3601H63.9234L61.4468 15.7031H63.2666Z" fill="white"/>
<path d="M72.8178 22.3602L72.7084 21.622H72.6673C72.2568 22.1414 71.5589 22.5106 70.697 22.5106C69.3561 22.5106 68.6034 21.5401 68.6034 20.5284C68.6034 18.8473 70.0949 17.9996 72.5578 18.0132V17.9039C72.5578 17.4664 72.3799 16.7419 71.2032 16.7419C70.5464 16.7419 69.8623 16.947 69.4108 17.2341L69.0824 16.1406C69.575 15.8398 70.4369 15.5527 71.4905 15.5527C73.625 15.5527 74.2408 16.906 74.2408 18.3551V20.7609C74.2408 21.3623 74.2682 21.9501 74.3366 22.3602H72.8178ZM72.5989 19.1069C71.4085 19.0794 70.2727 19.3392 70.2727 20.3507C70.2727 21.0069 70.697 21.3076 71.2305 21.3076C71.901 21.3076 72.3936 20.8701 72.5441 20.3918C72.5851 20.2688 72.5989 20.132 72.5989 20.0227V19.1069Z" fill="white"/>
<path d="M77.7167 12.6548H76.0201V22.3602H77.7167V12.6548Z" fill="white"/>
<path d="M81.3289 13.8442C81.3289 14.3499 80.9596 14.7463 80.3712 14.7463C79.8102 14.7463 79.4409 14.3499 79.4409 13.8442C79.4409 13.3248 79.8238 12.9282 80.3848 12.9282C80.9596 12.9282 81.3153 13.3248 81.3289 13.8442ZM79.5365 15.7032H81.2331V22.3602H79.5365V15.7032Z" fill="white"/>
<path d="M82.985 22.3602C83.0123 21.9091 83.0397 21.171 83.0397 20.4875V12.6548H84.7227V16.6189H84.7501C85.1606 15.9766 85.8857 15.5527 86.8846 15.5527C88.5128 15.5527 89.6756 16.906 89.6619 18.9292C89.6619 21.3214 88.1432 22.5106 86.6381 22.5106C85.7761 22.5106 85.0098 22.1825 84.531 21.3623H84.5036L84.4214 22.3602H82.985ZM84.7227 19.6126C84.7227 19.7493 84.7363 19.886 84.7638 20.009C84.9416 20.6788 85.5299 21.1846 86.2551 21.1846C87.3087 21.1846 87.9519 20.3371 87.9519 18.9975C87.9519 17.8219 87.3909 16.8651 86.2687 16.8651C85.5846 16.8651 84.9689 17.3572 84.7774 18.0953C84.7501 18.2183 84.7227 18.3688 84.7227 18.5328V19.6126Z" fill="white"/>
<path d="M92.7412 12.6548H91.0446V22.3602H92.7412V12.6548Z" fill="white"/>
<path d="M95.7516 19.5033C95.7927 20.7063 96.7368 21.2256 97.8041 21.2256C98.584 21.2256 99.1452 21.1163 99.6514 20.9248L99.8976 22.0868C99.3228 22.3193 98.5293 22.4968 97.5717 22.4968C95.4097 22.4968 94.137 21.171 94.137 19.1343C94.137 17.2889 95.259 15.5527 97.3937 15.5527C99.5556 15.5527 100.267 17.3298 100.267 18.7924C100.267 19.1069 100.24 19.3528 100.212 19.5033H95.7516ZM98.6798 18.3277C98.6933 17.7126 98.4198 16.701 97.2977 16.701C96.2577 16.701 95.82 17.6443 95.7515 18.3277H98.6798Z" fill="white"/>
<path d="M110.789 18.9702C110.789 21.4171 109.065 22.5106 107.369 22.5106C105.48 22.5106 104.03 21.212 104.03 19.0796C104.03 16.8923 105.467 15.5527 107.478 15.5527C109.462 15.5527 110.789 16.9472 110.789 18.9702ZM105.768 19.0386C105.768 20.3235 106.397 21.294 107.424 21.294C108.381 21.294 109.052 20.3509 109.052 19.0111C109.052 17.9723 108.586 16.7831 107.437 16.7831C106.247 16.7831 105.768 17.9313 105.768 19.0386Z" fill="white"/>
<path d="M112.172 17.6851C112.172 16.9198 112.158 16.2772 112.117 15.7031H113.595L113.677 16.701H113.718C114.006 16.1815 114.731 15.5527 115.839 15.5527C117.002 15.5527 118.206 16.3045 118.206 18.4096V22.3602H116.523V18.6011C116.523 17.6441 116.168 16.9198 115.251 16.9198C114.58 16.9198 114.115 17.3981 113.937 17.9039C113.883 18.0543 113.869 18.2594 113.869 18.4507V22.3602H112.172V17.6851H112.172Z" fill="white"/>
<path d="M124.761 13.8032V15.7033H126.362V16.961H124.761V19.8998C124.761 20.7064 124.98 21.13 125.623 21.13C125.91 21.13 126.129 21.089 126.28 21.0481L126.307 22.333C126.061 22.4286 125.623 22.4971 125.089 22.4971C124.473 22.4971 123.953 22.292 123.639 21.9503C123.283 21.5675 123.119 20.966 123.119 20.0913V16.961H122.161V15.7033H123.119V14.1996L124.761 13.8032Z" fill="white"/>
<path d="M127.634 12.6548H129.331V16.6189H129.358C129.564 16.3045 129.837 16.0449 130.193 15.8536C130.522 15.6621 130.918 15.5527 131.342 15.5527C132.478 15.5527 133.668 16.3045 133.668 18.4371V22.3602H131.986V18.6284C131.986 17.6579 131.63 16.9334 130.699 16.9334C130.043 16.9334 129.577 17.3709 129.4 17.8764C129.345 18.0132 129.331 18.1911 129.331 18.3824V22.3602H127.635V12.6548H127.634Z" fill="white"/>
<path d="M136.652 19.5033C136.693 20.7063 137.637 21.2256 138.704 21.2256C139.484 21.2256 140.045 21.1163 140.552 20.9248L140.798 22.0868C140.223 22.3193 139.429 22.4968 138.472 22.4968C136.31 22.4968 135.037 21.171 135.037 19.1343C135.037 17.2889 136.159 15.5527 138.294 15.5527C140.456 15.5527 141.167 17.3298 141.167 18.7924C141.167 19.1069 141.14 19.3528 141.112 19.5033H136.652ZM139.58 18.3277C139.594 17.7126 139.32 16.701 138.198 16.701C137.158 16.701 136.72 17.6443 136.652 18.3277H139.58Z" fill="white"/>
</svg>
