<svg width="40" height="40" viewBox="0 0 40 40" fill="none" xmlns="http://www.w3.org/2000/svg">
<rect x="0.5" y="0.5" width="39" height="39" rx="19.5" stroke="white"/>
<path d="M16.8344 25H14.2914V16.8242H16.8344V25ZM15.5492 15.7305C14.7562 15.7305 14.1 15.0469 14.1 14.2266C14.1 13.4336 14.7562 12.7773 15.5492 12.7773C16.3695 12.7773 17.0258 13.4336 17.0258 14.2266C17.0258 15.0469 16.3695 15.7305 15.5492 15.7305ZM26.3227 25H23.807V21.0352C23.807 20.0781 23.7797 18.875 22.4672 18.875C21.1547 18.875 20.9633 19.8867 20.9633 20.9531V25H18.4203V16.8242H20.8539V17.9453H20.8812C21.2367 17.3164 22.057 16.6328 23.2875 16.6328C25.8578 16.6328 26.35 18.3281 26.35 20.5156V25H26.3227Z" fill="white"/>
</svg>
