<svg width="40" height="40" viewBox="0 0 40 40" fill="none" xmlns="http://www.w3.org/2000/svg">
<rect x="0.5" y="0.5" width="39" height="39" rx="19.5" stroke="white"/>
<path d="M20.225 16.6055C21.9477 16.6055 23.3695 18.0273 23.3695 19.75C23.3695 21.5 21.9477 22.8945 20.225 22.8945C18.475 22.8945 17.0805 21.5 17.0805 19.75C17.0805 18.0273 18.475 16.6055 20.225 16.6055ZM20.225 21.8008C21.3461 21.8008 22.2484 20.8984 22.2484 19.75C22.2484 18.6289 21.3461 17.7266 20.225 17.7266C19.0766 17.7266 18.1742 18.6289 18.1742 19.75C18.1742 20.8984 19.1039 21.8008 20.225 21.8008ZM24.2172 16.4961C24.2172 16.9062 23.8891 17.2344 23.4789 17.2344C23.0687 17.2344 22.7406 16.9062 22.7406 16.4961C22.7406 16.0859 23.0687 15.7578 23.4789 15.7578C23.8891 15.7578 24.2172 16.0859 24.2172 16.4961ZM26.2953 17.2344C26.35 18.2461 26.35 21.2812 26.2953 22.293C26.2406 23.2773 26.0219 24.125 25.3109 24.8633C24.6 25.5742 23.725 25.793 22.7406 25.8477C21.7289 25.9023 18.6937 25.9023 17.682 25.8477C16.6977 25.793 15.85 25.5742 15.1117 24.8633C14.4008 24.125 14.182 23.2773 14.1273 22.293C14.0727 21.2812 14.0727 18.2461 14.1273 17.2344C14.182 16.25 14.4008 15.375 15.1117 14.6641C15.85 13.9531 16.6977 13.7344 17.682 13.6797C18.6937 13.625 21.7289 13.625 22.7406 13.6797C23.725 13.7344 24.6 13.9531 25.3109 14.6641C26.0219 15.375 26.2406 16.25 26.2953 17.2344ZM24.9828 23.3594C25.3109 22.5664 25.2289 20.6523 25.2289 19.75C25.2289 18.875 25.3109 16.9609 24.9828 16.1406C24.7641 15.6211 24.3539 15.1836 23.8344 14.9922C23.0141 14.6641 21.1 14.7461 20.225 14.7461C19.3227 14.7461 17.4086 14.6641 16.6156 14.9922C16.0687 15.2109 15.6586 15.6211 15.4398 16.1406C15.1117 16.9609 15.1937 18.875 15.1937 19.75C15.1937 20.6523 15.1117 22.5664 15.4398 23.3594C15.6586 23.9062 16.0687 24.3164 16.6156 24.5352C17.4086 24.8633 19.3227 24.7812 20.225 24.7812C21.1 24.7812 23.0141 24.8633 23.8344 24.5352C24.3539 24.3164 24.7914 23.9062 24.9828 23.3594Z" fill="white"/>
</svg>
