<svg width="43" height="20" viewBox="0 0 43 20" fill="none" xmlns="http://www.w3.org/2000/svg">
<path d="M7.59772 11.7271C7.43255 11.6032 7.22609 11.5207 7.01963 11.4794C6.81317 11.3968 6.60671 11.3968 6.40025 11.3968C6.27638 11.3968 6.1525 11.3968 6.02863 11.4381C5.90475 11.4794 5.82217 11.5207 5.73958 11.562C5.657 11.6032 5.57441 11.6858 5.53312 11.7684C5.49183 11.851 5.45054 11.9336 5.45054 12.0162C5.45054 12.0988 5.45054 12.1813 5.49183 12.2226C5.53312 12.2639 5.57441 12.3465 5.657 12.3878C5.73958 12.4291 5.82217 12.4704 5.94604 12.5117C6.06992 12.553 6.19379 12.553 6.31767 12.5943L6.60671 12.6355C6.77188 12.6768 6.93705 12.6768 7.10222 12.7594C7.26738 12.8007 7.39126 12.8833 7.51514 12.9659C7.63901 13.0485 7.76289 13.1723 7.80418 13.2962C7.88676 13.4201 7.92806 13.5853 7.92806 13.7917C7.92806 13.9982 7.88676 14.2046 7.80418 14.3698C7.7216 14.535 7.59772 14.6589 7.43255 14.7827C7.26738 14.9066 7.10222 14.9892 6.89576 15.0305C6.6893 15.0718 6.48284 15.1131 6.23509 15.1131C6.11121 15.1131 5.94604 15.1131 5.78087 15.0718C5.61571 15.0305 5.49183 15.0305 5.32666 14.9479C5.16149 14.9066 5.03762 14.824 4.91374 14.7827C4.78987 14.7001 4.66599 14.6176 4.54211 14.535L4.91374 13.9982C4.99633 14.0808 5.07891 14.1221 5.16149 14.1633C5.24408 14.2046 5.36795 14.2872 5.49183 14.3285C5.61571 14.3698 5.73958 14.4111 5.86346 14.4111C5.98733 14.4524 6.11121 14.4524 6.23509 14.4524C6.35896 14.4524 6.48284 14.4524 6.60671 14.4111C6.73059 14.3698 6.81317 14.3285 6.89576 14.2872C6.97834 14.2459 7.06092 14.1633 7.10222 14.0808C7.14351 13.9982 7.1848 13.9156 7.1848 13.833C7.1848 13.6678 7.10222 13.544 6.93705 13.4614C6.77188 13.3788 6.52413 13.2962 6.23509 13.2549L6.02863 13.2136C5.86346 13.1723 5.73958 13.1723 5.57441 13.0898C5.40925 13.0485 5.28537 12.9659 5.16149 12.8833C5.03762 12.8007 4.95503 12.6768 4.87245 12.553C4.78987 12.4291 4.74857 12.2639 4.74857 12.0575C4.74857 11.851 4.78987 11.6445 4.87245 11.5207C4.95503 11.3555 5.07891 11.2316 5.24408 11.1077C5.40925 10.9839 5.57441 10.9013 5.78087 10.86C5.98733 10.8187 6.19379 10.7774 6.40025 10.7774C6.6893 10.7774 6.97834 10.8187 7.22609 10.9013C7.47384 10.9839 7.6803 11.1077 7.92806 11.2316L7.59772 11.7271ZM9.91007 12.0575C10.1165 12.0575 10.2817 12.0988 10.4469 12.1813C10.612 12.2639 10.7359 12.3465 10.8598 12.4704C10.9837 12.5943 11.0662 12.7594 11.1488 12.9246C11.2314 13.0898 11.2314 13.2962 11.2314 13.544C11.2314 13.5853 11.2314 13.6266 11.2314 13.6678C11.2314 13.7091 11.2314 13.7504 11.2314 13.7917H9.12552C9.12552 13.9156 9.16681 14.0395 9.2494 14.1221C9.29069 14.2046 9.37327 14.2872 9.45586 14.3285C9.53844 14.3698 9.62103 14.4111 9.70361 14.4524C9.78619 14.4937 9.91007 14.4937 9.99265 14.4937C10.1165 14.4937 10.2817 14.4524 10.4056 14.4111C10.5294 14.3698 10.6946 14.2872 10.8185 14.2046L11.1488 14.6589C10.9837 14.824 10.7772 14.9066 10.612 14.9892C10.4056 15.0305 10.1991 15.0718 9.99265 15.0718C9.78619 15.0718 9.57973 15.0305 9.41457 14.9479C9.2494 14.8653 9.08423 14.7827 8.96036 14.6589C8.83648 14.535 8.7126 14.3698 8.67131 14.2046C8.58873 14.0395 8.54744 13.833 8.54744 13.5853C8.54744 13.3788 8.58873 13.1723 8.67131 12.9659C8.75389 12.8007 8.83648 12.6355 8.96036 12.4704C9.08423 12.3465 9.2494 12.2226 9.41457 12.1813C9.49715 12.0988 9.66232 12.0575 9.91007 12.0575ZM9.86878 12.6355C9.7449 12.6355 9.66232 12.6355 9.57973 12.6768C9.49715 12.7181 9.41457 12.7594 9.37327 12.842C9.29069 12.9246 9.2494 12.9659 9.20811 13.0485C9.16681 13.1311 9.12552 13.2136 9.12552 13.3375H10.612C10.5707 13.1311 10.4882 12.9246 10.3643 12.8007C10.2404 12.6768 10.0752 12.6355 9.86878 12.6355ZM13.1721 12.0575C13.3786 12.0575 13.5851 12.0988 13.7502 12.1813C13.9154 12.2639 14.0806 12.3878 14.2044 12.5117L13.7915 12.9246C13.7089 12.842 13.5851 12.7594 13.4612 12.7181C13.3373 12.6768 13.2134 12.6355 13.0896 12.6355C12.9657 12.6355 12.8418 12.6768 12.7592 12.7181C12.6353 12.7594 12.5528 12.842 12.5115 12.9246C12.4289 13.0072 12.3876 13.0898 12.3463 13.2136C12.305 13.3375 12.2637 13.4614 12.2637 13.5853C12.2637 13.7091 12.305 13.833 12.3463 13.9569C12.3876 14.0808 12.4289 14.1633 12.5115 14.2459C12.594 14.3285 12.6766 14.3698 12.7592 14.4524C12.8418 14.4937 12.9657 14.535 13.0896 14.535C13.2134 14.535 13.3373 14.4937 13.4612 14.4524C13.5851 14.4111 13.6676 14.3285 13.7915 14.2459L14.1631 14.6589C14.0393 14.824 13.8741 14.9066 13.7089 14.9892C13.5438 15.0718 13.3373 15.1131 13.1308 15.1131C12.9244 15.1131 12.7179 15.0718 12.5115 14.9892C12.3463 14.9066 12.1811 14.824 12.0573 14.6589C11.9334 14.535 11.8095 14.3698 11.7682 14.1633C11.6856 13.9982 11.6443 13.7917 11.6443 13.5853C11.6443 13.3788 11.6856 13.1723 11.7682 13.0072C11.8508 12.842 11.9334 12.6768 12.0573 12.5117C12.1811 12.3878 12.3463 12.2639 12.5115 12.1813C12.7592 12.0988 12.9657 12.0575 13.1721 12.0575ZM17.4665 13.7917C17.4665 13.9982 17.4252 14.2046 17.3426 14.3698C17.26 14.535 17.1775 14.6589 17.0536 14.7827C16.9297 14.9066 16.8058 14.9479 16.6407 15.0305C16.4755 15.0718 16.3103 15.1131 16.1452 15.1131C15.98 15.1131 15.8148 15.0718 15.6497 15.0305C15.4845 14.9892 15.3606 14.9066 15.2367 14.7827C15.1129 14.7001 15.0303 14.535 14.9477 14.3698C14.8651 14.2046 14.8238 13.9982 14.8238 13.7917V12.14H15.4432V13.7091C15.4432 13.833 15.4432 13.9569 15.4845 14.0395C15.5258 14.1221 15.5671 14.2046 15.6497 14.2872C15.7322 14.3285 15.7735 14.3698 15.8561 14.4111C15.9387 14.4524 16.0213 14.4524 16.1452 14.4524C16.2277 14.4524 16.3516 14.4524 16.4342 14.4111C16.5168 14.3698 16.5994 14.3285 16.6407 14.2872C16.7232 14.2459 16.7645 14.1633 16.8058 14.0395C16.8471 13.9569 16.8471 13.833 16.8471 13.7091V12.14H17.4665V13.7917ZM19.7376 12.0575C19.8201 12.0575 19.9027 12.0575 19.9853 12.0575C20.0679 12.0575 20.1505 12.0988 20.1918 12.0988L20.0266 12.7181C19.944 12.6768 19.9027 12.6768 19.7789 12.6355C19.6963 12.6355 19.6137 12.5943 19.5311 12.5943C19.4485 12.5943 19.3246 12.5943 19.2421 12.6355C19.1595 12.6768 19.0769 12.7181 19.0356 12.8007C18.9943 12.8833 18.9117 12.9659 18.9117 13.0485C18.8704 13.1311 18.8704 13.2549 18.8704 13.3788V14.9479H18.251V12.0988H18.8704V12.4291C18.953 12.3052 19.0769 12.1813 19.2421 12.14C19.3659 12.0988 19.5311 12.0575 19.7376 12.0575ZM21.8022 12.0575C22.0086 12.0575 22.1738 12.0988 22.339 12.1813C22.5041 12.2639 22.628 12.3465 22.7519 12.4704C22.8757 12.5943 22.9583 12.7594 23.0409 12.9246C23.1235 13.0898 23.1235 13.2962 23.1235 13.544C23.1235 13.5853 23.1235 13.6266 23.1235 13.6678C23.1235 13.7091 23.1235 13.7504 23.1235 13.7917H21.0589C21.0589 13.9156 21.1002 14.0395 21.1828 14.1221C21.2241 14.2046 21.3067 14.2872 21.3892 14.3285C21.4718 14.3698 21.5544 14.4111 21.637 14.4524C21.7196 14.4937 21.8434 14.4937 21.926 14.4937C22.0499 14.4937 22.2151 14.4524 22.339 14.4111C22.4628 14.3698 22.628 14.2872 22.7519 14.2046L23.0409 14.6589C22.8757 14.824 22.6693 14.9066 22.5041 14.9892C22.2977 15.0305 22.0912 15.0718 21.8847 15.0718C21.6783 15.0718 21.4718 15.0305 21.3067 14.9479C21.1415 14.8653 20.9763 14.7827 20.8524 14.6589C20.7286 14.535 20.6047 14.3698 20.5634 14.2046C20.4808 14.0395 20.4395 13.833 20.4395 13.5853C20.4395 13.3788 20.4808 13.1723 20.5634 12.9659C20.646 12.8007 20.7286 12.6355 20.8524 12.4704C20.9763 12.3465 21.1415 12.2226 21.3067 12.1813C21.3892 12.0988 21.5957 12.0575 21.8022 12.0575ZM21.8022 12.6355C21.6783 12.6355 21.5957 12.6355 21.5131 12.6768C21.4305 12.7181 21.3479 12.7594 21.3067 12.842C21.2241 12.9246 21.1828 12.9659 21.1415 13.0485C21.1002 13.1311 21.0589 13.2136 21.0589 13.3375H22.5454C22.5041 13.1311 22.4215 12.9246 22.2977 12.8007C22.1738 12.6768 22.0086 12.6355 21.8022 12.6355ZM25.8488 10.7361C26.0139 10.7361 26.2204 10.7361 26.3856 10.7774C26.5507 10.8187 26.7159 10.86 26.8811 10.9426C27.0462 11.0252 27.1701 11.1077 27.294 11.2316C27.4179 11.3555 27.5005 11.4794 27.583 11.6032L27.0049 11.9749C26.8811 11.7684 26.7159 11.6445 26.5094 11.5207C26.303 11.3968 26.0965 11.3555 25.8488 11.3555C25.6423 11.3555 25.4359 11.3968 25.2707 11.4794C25.1055 11.562 24.9403 11.6445 24.8165 11.8097C24.6926 11.9336 24.5687 12.0988 24.5274 12.3052C24.4448 12.5117 24.4035 12.6768 24.4035 12.9246C24.4035 13.1311 24.4448 13.3375 24.5274 13.544C24.61 13.7504 24.6926 13.8743 24.8165 14.0395C24.9403 14.1633 25.1055 14.2872 25.2707 14.3285C25.4359 14.4111 25.6423 14.4524 25.8488 14.4524C26.0965 14.4524 26.303 14.4111 26.5094 14.2872C26.7159 14.1633 26.8811 14.0395 27.0049 13.833L27.5417 14.2459C27.4592 14.3698 27.3353 14.4937 27.2114 14.6176C27.0875 14.7414 26.9637 14.824 26.7985 14.8653C26.6333 14.9479 26.5094 14.9892 26.3443 15.0305C26.1791 15.0718 26.0139 15.0718 25.8075 15.0718C25.4771 15.0718 25.1881 15.0305 24.9403 14.9066C24.6926 14.7827 24.4448 14.6589 24.2384 14.4524C24.0319 14.2459 23.908 14.0395 23.7842 13.7504C23.6603 13.5027 23.619 13.2136 23.619 12.8833C23.619 12.553 23.6603 12.2639 23.7842 12.0162C23.908 11.7684 24.0319 11.5207 24.2384 11.3142C24.4448 11.1077 24.6513 10.9839 24.9403 10.86C25.2294 10.8187 25.5184 10.7361 25.8488 10.7361ZM29.5238 12.0575C29.7302 12.0575 29.9367 12.0988 30.1431 12.1813C30.3496 12.2639 30.4735 12.3465 30.6386 12.5117C30.7625 12.6355 30.8864 12.8007 30.969 13.0072C31.0516 13.1723 31.0928 13.3788 31.0928 13.5853C31.0928 13.7917 31.0516 13.9982 30.969 14.1633C30.8864 14.3285 30.8038 14.4937 30.6386 14.6589C30.5148 14.7827 30.3496 14.9066 30.1431 14.9892C29.9367 15.0718 29.7715 15.1131 29.5238 15.1131C29.3173 15.1131 29.1108 15.0718 28.9044 14.9892C28.6979 14.9066 28.574 14.824 28.4089 14.6589C28.285 14.535 28.1611 14.3698 28.0785 14.1633C27.996 13.9982 27.9547 13.7917 27.9547 13.5853C27.9547 13.3788 27.996 13.1723 28.0785 13.0072C28.1611 12.842 28.2437 12.6768 28.4089 12.5117C28.5327 12.3878 28.6979 12.2639 28.9044 12.1813C29.1108 12.0988 29.3173 12.0575 29.5238 12.0575ZM29.5238 12.6355C29.3999 12.6355 29.276 12.6768 29.1521 12.7181C29.0282 12.7594 28.9457 12.842 28.8631 12.9246C28.7805 13.0072 28.7392 13.0898 28.6566 13.2136C28.6153 13.3375 28.574 13.4614 28.574 13.5853C28.574 13.7091 28.6153 13.833 28.6566 13.9569C28.6979 14.0808 28.7805 14.1633 28.8631 14.2459C28.9457 14.3285 29.0282 14.3698 29.1521 14.4524C29.276 14.4937 29.3999 14.535 29.5238 14.535C29.6476 14.535 29.7715 14.4937 29.8954 14.4524C30.0193 14.4111 30.1018 14.3285 30.1844 14.2459C30.267 14.1633 30.3083 14.0808 30.3909 13.9569C30.4322 13.833 30.4735 13.7091 30.4735 13.5853C30.4735 13.4614 30.4322 13.3375 30.3909 13.2136C30.3496 13.0898 30.267 13.0072 30.1844 12.9246C30.1018 12.842 30.0193 12.8007 29.8954 12.7181C29.7715 12.6768 29.6476 12.6355 29.5238 12.6355ZM32.951 12.0575C33.1574 12.0575 33.3226 12.0988 33.4878 12.1813C33.653 12.2639 33.7768 12.3465 33.8594 12.4704V10.6948H34.4788V14.9892H33.8594V14.6589C33.7768 14.7827 33.653 14.9066 33.4878 14.9479C33.3226 15.0305 33.1574 15.0718 32.951 15.0718C32.7445 15.0718 32.5794 15.0305 32.3729 14.9479C32.2077 14.8653 32.0426 14.7827 31.9187 14.6176C31.7948 14.4937 31.6709 14.3285 31.6296 14.1221C31.5471 13.9569 31.5058 13.7504 31.5058 13.5027C31.5058 13.2962 31.5471 13.0898 31.6296 12.8833C31.7122 12.7181 31.7948 12.553 31.9187 12.3878C32.0426 12.2639 32.2077 12.14 32.3729 12.0575C32.5381 12.0988 32.7445 12.0575 32.951 12.0575ZM32.9923 12.6355C32.8684 12.6355 32.7445 12.6768 32.6207 12.7181C32.4968 12.7594 32.4142 12.842 32.3316 12.9246C32.249 13.0072 32.2077 13.0898 32.1664 13.2136C32.1251 13.3375 32.1251 13.4614 32.1251 13.5853C32.1251 13.7091 32.1251 13.833 32.1664 13.9569C32.2077 14.0808 32.249 14.1633 32.3316 14.2459C32.4142 14.3285 32.4968 14.4111 32.6207 14.4524C32.7445 14.4937 32.8271 14.535 32.9923 14.535C33.1162 14.535 33.24 14.4937 33.3639 14.4524C33.4878 14.4111 33.5704 14.3285 33.653 14.2459C33.7355 14.1633 33.7768 14.0808 33.8181 13.9569C33.8594 13.833 33.9007 13.7091 33.9007 13.5853C33.9007 13.4614 33.8594 13.3375 33.8181 13.2136C33.7768 13.0898 33.7355 13.0072 33.653 12.9246C33.5704 12.842 33.4878 12.7594 33.3639 12.7181C33.24 12.6768 33.1574 12.6355 32.9923 12.6355ZM36.5434 12.0575C36.7498 12.0575 36.915 12.0988 37.0802 12.1813C37.2454 12.2639 37.3692 12.3465 37.4931 12.4704C37.617 12.5943 37.6996 12.7594 37.7821 12.9246C37.8647 13.0898 37.8647 13.2962 37.8647 13.544C37.8647 13.5853 37.8647 13.6266 37.8647 13.6678C37.8647 13.7091 37.8647 13.7504 37.8647 13.7917H35.7588C35.7588 13.9156 35.8001 14.0395 35.8827 14.1221C35.924 14.2046 36.0066 14.2872 36.0892 14.3285C36.1718 14.3698 36.2543 14.4111 36.3369 14.4524C36.4195 14.4937 36.5434 14.4937 36.626 14.4937C36.7498 14.4937 36.915 14.4524 37.0389 14.4111C37.1628 14.3698 37.3279 14.2872 37.4518 14.2046L37.7409 14.6589C37.5757 14.824 37.3692 14.9066 37.2041 14.9892C36.9976 15.0305 36.7911 15.0718 36.5847 15.0718C36.3782 15.0718 36.1718 15.0305 36.0066 14.9479C35.8414 14.8653 35.6763 14.7827 35.5524 14.6589C35.4285 14.535 35.3046 14.3698 35.2633 14.2046C35.1808 14.0395 35.1395 13.833 35.1395 13.5853C35.1395 13.3788 35.1808 13.1723 35.2633 12.9659C35.3459 12.8007 35.4285 12.6355 35.5524 12.4704C35.6763 12.3465 35.8414 12.2226 36.0066 12.1813C36.1305 12.0988 36.3369 12.0575 36.5434 12.0575ZM38.1538 14.9892V14.8653H38.1951V14.824H38.0299V14.8653H38.0712L38.1538 14.9892ZM38.4428 14.9892V14.824H38.4015L38.3602 14.9479L38.3189 14.824H38.2776V14.9892H38.3189V14.8653L38.3602 14.9892H38.4015L38.4428 14.8653V14.9892ZM36.5021 12.6355C36.3782 12.6355 36.2956 12.6355 36.2131 12.6768C36.1305 12.7181 36.0479 12.7594 36.0066 12.842C35.924 12.9246 35.8827 12.9659 35.8414 13.0485C35.8001 13.1311 35.7588 13.2136 35.7588 13.3375H37.2453C37.2041 13.1311 37.1215 12.9246 36.9976 12.8007C36.8737 12.6768 36.7086 12.6355 36.5021 12.6355Z" fill="#F59E1F"/>
<path d="M9.66227 9.12555H8.96031V5.57444L7.72155 8.67134H6.97829L5.69824 5.57444V9.08426H4.99628V4.78989H6.06987L7.30863 7.88679L8.54739 4.78989H9.62098V9.12555H9.66227ZM13.3373 9.12555H12.6766V8.75392C12.594 8.8778 12.4288 9.00167 12.305 9.08426C12.1398 9.16684 11.9746 9.20813 11.7682 9.20813C11.5617 9.20813 11.3552 9.16684 11.1901 9.08426C11.0249 9.00167 10.8597 8.91909 10.7359 8.75392C10.612 8.63004 10.4881 8.46488 10.4055 8.25842C10.3229 8.05196 10.2816 7.8455 10.2816 7.63904C10.2816 7.43258 10.3229 7.18483 10.4055 7.01966C10.4881 6.8132 10.5707 6.64803 10.7359 6.52415C10.8597 6.40028 11.0249 6.2764 11.1901 6.19382C11.3552 6.11123 11.5617 6.06994 11.7682 6.06994C11.9746 6.06994 12.1811 6.11123 12.305 6.19382C12.4701 6.2764 12.594 6.35899 12.6766 6.52415V6.15253H13.3373V9.12555ZM11.8507 6.68932C11.7269 6.68932 11.603 6.73061 11.4791 6.77191C11.3552 6.8132 11.2727 6.89578 11.1901 6.97837C11.1075 7.06095 11.0662 7.14353 11.0249 7.26741C10.9836 7.39129 10.9836 7.51516 10.9836 7.63904C10.9836 7.76291 10.9836 7.88679 11.0249 8.01066C11.0662 8.13454 11.1075 8.21712 11.1901 8.29971C11.2727 8.38229 11.3552 8.46488 11.4791 8.50617C11.603 8.54746 11.7269 8.58875 11.8507 8.58875C11.9746 8.58875 12.0985 8.54746 12.2224 8.50617C12.3462 8.46488 12.4288 8.38229 12.5114 8.29971C12.594 8.21712 12.6353 8.13454 12.6766 8.01066C12.7179 7.88679 12.7592 7.76291 12.7592 7.63904C12.7592 7.51516 12.7179 7.39129 12.6766 7.26741C12.6353 7.14353 12.5527 7.06095 12.5114 6.97837C12.4288 6.89578 12.3462 6.8132 12.2224 6.77191C12.0985 6.68932 11.9746 6.68932 11.8507 6.68932ZM16.3103 6.89578C16.269 6.85449 16.2277 6.85449 16.1451 6.8132C16.0625 6.77191 16.0212 6.77191 15.9386 6.73061C15.8561 6.68932 15.7735 6.68932 15.6909 6.68932C15.6083 6.68932 15.5257 6.64803 15.4019 6.64803C15.2367 6.64803 15.0715 6.68932 14.9889 6.73061C14.9063 6.8132 14.8238 6.89578 14.8238 6.97837C14.8238 7.01966 14.8238 7.06095 14.8651 7.10224C14.9063 7.14353 14.9063 7.18483 14.9889 7.18483C15.0302 7.22612 15.0715 7.22612 15.1541 7.22612C15.1954 7.22612 15.278 7.26741 15.3606 7.26741L15.6496 7.3087C15.9799 7.34999 16.2277 7.43258 16.3929 7.59774C16.558 7.72162 16.6819 7.92808 16.6819 8.17583C16.6819 8.29971 16.6406 8.46488 16.5993 8.54746C16.558 8.67134 16.4342 8.75392 16.3516 8.8365C16.2277 8.91909 16.1038 9.00167 15.9386 9.04296C15.7735 9.08426 15.567 9.12555 15.3606 9.12555C15.278 9.12555 15.1954 9.12555 15.1128 9.12555C15.0302 9.12555 14.9063 9.08426 14.7825 9.08426C14.6586 9.04296 14.5347 9.00167 14.4521 8.96038C14.3283 8.91909 14.2044 8.8365 14.1218 8.75392L14.4108 8.25842C14.4521 8.29971 14.5347 8.341 14.576 8.38229C14.6586 8.42358 14.6999 8.46488 14.7825 8.46488C14.8651 8.50617 14.9476 8.50617 15.0302 8.54746C15.1128 8.54746 15.2367 8.58875 15.3606 8.58875C15.567 8.58875 15.7322 8.54746 15.8561 8.50617C15.9799 8.42358 16.0212 8.341 16.0212 8.25842C16.0212 8.17583 15.9799 8.09325 15.8974 8.05196C15.8148 8.01066 15.6909 7.96937 15.5257 7.92808L15.2367 7.88679C14.9064 7.8455 14.6586 7.76291 14.4934 7.59774C14.3283 7.43258 14.2457 7.26741 14.2457 7.01966C14.2457 6.85449 14.287 6.73061 14.3283 6.60674C14.3696 6.48286 14.4521 6.40028 14.576 6.31769C14.6999 6.23511 14.8238 6.19382 14.9476 6.11123C15.1128 6.06994 15.278 6.02865 15.4431 6.02865C15.6909 6.02865 15.8974 6.06994 16.1038 6.11123C16.3103 6.15253 16.4754 6.23511 16.6406 6.35899L16.3103 6.89578ZM19.3659 6.73061H18.251V8.01066C18.251 8.09325 18.251 8.17583 18.2923 8.25842C18.3336 8.341 18.3336 8.38229 18.3749 8.42358C18.4162 8.46488 18.4575 8.50617 18.54 8.50617C18.5813 8.50617 18.6639 8.54746 18.7052 8.54746C18.7878 8.54746 18.9117 8.54746 18.9943 8.50617C19.1181 8.46488 19.2007 8.42358 19.2833 8.38229L19.531 8.8778C19.4072 8.96038 19.2833 9.04296 19.1181 9.08426C18.953 9.12555 18.7878 9.16684 18.6226 9.16684C18.2923 9.16684 18.0445 9.08426 17.8381 8.8778C17.6316 8.67134 17.549 8.38229 17.549 8.01066V6.68932H16.9709V6.11123H17.549V5.20281H18.2097V6.11123H19.3246V6.73061H19.3659ZM21.3479 6.06994C21.5544 6.06994 21.7608 6.11123 21.926 6.19382C22.0912 6.2764 22.2563 6.35899 22.3802 6.52415C22.5041 6.64803 22.5867 6.8132 22.6692 7.01966C22.7518 7.22612 22.7931 7.43258 22.7931 7.63904C22.7931 7.68033 22.7931 7.72162 22.7931 7.76291C22.7931 7.8042 22.7931 7.8455 22.7931 7.88679H20.6046C20.6046 8.01066 20.6459 8.13454 20.7285 8.21712C20.7698 8.29971 20.8524 8.38229 20.935 8.46488C21.0176 8.50617 21.1001 8.58875 21.1827 8.58875C21.2653 8.63004 21.3892 8.63004 21.4718 8.63004C21.6369 8.63004 21.7608 8.58875 21.926 8.54746C22.0912 8.50617 22.215 8.42358 22.3389 8.29971L22.6692 8.75392C22.5041 8.91909 22.2976 9.00167 22.0912 9.08426C21.8847 9.12555 21.6782 9.16684 21.4305 9.16684C21.224 9.16684 21.0176 9.12555 20.8111 9.04296C20.6459 8.96038 20.4808 8.8778 20.3156 8.71263C20.1917 8.58875 20.0678 8.42358 19.9853 8.21712C19.9027 8.01066 19.8614 7.8042 19.8614 7.59774C19.8614 7.34999 19.9027 7.14353 19.9853 6.97837C20.0678 6.77191 20.1504 6.60674 20.2743 6.48286C20.3982 6.35899 20.5633 6.23511 20.7285 6.15253C20.935 6.11123 21.1414 6.06994 21.3479 6.06994ZM21.3479 6.64803C21.224 6.64803 21.1414 6.64803 21.0589 6.68932C20.9763 6.73061 20.8937 6.77191 20.8111 6.85449C20.7285 6.93707 20.6872 6.97837 20.6459 7.10224C20.6046 7.18483 20.5633 7.3087 20.5633 7.39128H22.0912C22.0499 7.14353 21.9673 6.97837 21.8434 6.85449C21.7195 6.68932 21.5544 6.64803 21.3479 6.64803ZM24.9816 6.06994C25.0642 6.06994 25.188 6.06994 25.2293 6.06994C25.3119 6.06994 25.3945 6.11123 25.4771 6.15253L25.3119 6.77191C25.2293 6.73061 25.1468 6.73061 25.0642 6.68932C24.9816 6.68932 24.899 6.64803 24.8164 6.64803C24.7338 6.64803 24.61 6.64803 24.5274 6.68932C24.4448 6.73061 24.3622 6.77191 24.3209 6.85449C24.2796 6.93707 24.197 7.01966 24.1558 7.10224C24.1145 7.18483 24.1145 7.3087 24.1145 7.43258V9.04296H23.4538V6.06994H24.0732V6.40028C24.1558 6.2764 24.2796 6.15253 24.4448 6.06994C24.6513 6.11123 24.8164 6.06994 24.9816 6.06994ZM27.2114 6.06994C27.4178 6.06994 27.6243 6.11123 27.8307 6.19382C28.0372 6.2764 28.2024 6.40028 28.3262 6.56545L27.9133 7.01966C27.7894 6.93707 27.7069 6.85449 27.583 6.77191C27.4591 6.73061 27.3352 6.68932 27.2114 6.68932C27.0875 6.68932 26.9636 6.73061 26.881 6.77191C26.7571 6.8132 26.6746 6.89578 26.592 6.97837C26.5094 7.06095 26.4681 7.14353 26.4268 7.26741C26.3855 7.39129 26.3442 7.51516 26.3442 7.63904C26.3442 7.76291 26.3855 7.88679 26.4268 8.01066C26.4681 8.13454 26.5507 8.21712 26.592 8.29971C26.6746 8.38229 26.7571 8.46488 26.881 8.50617C27.0049 8.54746 27.0875 8.58875 27.2114 8.58875C27.3352 8.58875 27.5004 8.54746 27.6243 8.50617C27.7482 8.46488 27.872 8.38229 27.9546 8.29971L28.3675 8.75392C28.2437 8.91909 28.0785 9.04296 27.872 9.12555C27.6656 9.20813 27.4591 9.24942 27.2526 9.24942C27.0049 9.24942 26.7984 9.20813 26.6333 9.12555C26.4268 9.04296 26.2616 8.91909 26.1378 8.79521C26.0139 8.67134 25.89 8.50617 25.8074 8.29971C25.7248 8.09325 25.6836 7.88679 25.6836 7.68033C25.6836 7.47387 25.7248 7.26741 25.8074 7.06095C25.89 6.85449 25.9726 6.68932 26.1378 6.56545C26.2616 6.44157 26.4268 6.31769 26.6333 6.23511C26.7571 6.11123 26.9636 6.06994 27.2114 6.06994ZM31.7535 9.12555H31.0928V8.75392C31.0102 8.8778 30.8451 9.00167 30.7212 9.08426C30.556 9.16684 30.3908 9.20813 30.1844 9.20813C29.9779 9.20813 29.7715 9.16684 29.6063 9.08426C29.4411 9.00167 29.276 8.91909 29.1521 8.75392C29.0282 8.63004 28.9043 8.46488 28.8217 8.25842C28.7392 8.05196 28.6979 7.8455 28.6979 7.63904C28.6979 7.43258 28.7392 7.18483 28.8217 7.01966C28.9043 6.8132 28.9869 6.64803 29.1521 6.52415C29.276 6.40028 29.4411 6.2764 29.6063 6.19382C29.7715 6.11123 29.9779 6.06994 30.1844 6.06994C30.3908 6.06994 30.5973 6.11123 30.7212 6.19382C30.8863 6.2764 31.0102 6.35899 31.0928 6.52415V6.15253H31.7535V9.12555ZM30.267 6.68932C30.1431 6.68932 30.0192 6.73061 29.8953 6.77191C29.7715 6.8132 29.6889 6.89578 29.6063 6.97837C29.5237 7.06095 29.4824 7.14353 29.4411 7.26741C29.3998 7.39129 29.3998 7.51516 29.3998 7.63904C29.3998 7.76291 29.4411 7.88679 29.4411 8.01066C29.4824 8.13454 29.5237 8.21712 29.6063 8.29971C29.6889 8.38229 29.7715 8.46488 29.8953 8.50617C30.0192 8.54746 30.1431 8.58875 30.267 8.58875C30.3908 8.58875 30.5147 8.54746 30.6386 8.50617C30.7625 8.46488 30.8451 8.38229 30.9276 8.29971C31.0102 8.21712 31.0515 8.13454 31.0928 8.01066C31.1341 7.88679 31.1754 7.76291 31.1754 7.63904C31.1754 7.51516 31.1341 7.39129 31.0928 7.26741C31.0515 7.14353 30.9689 7.06095 30.9276 6.97837C30.8451 6.89578 30.7625 6.8132 30.6386 6.77191C30.5147 6.68932 30.3908 6.68932 30.267 6.68932ZM34.1897 6.06994C34.2723 6.06994 34.3962 6.06994 34.4375 6.06994C34.52 6.06994 34.6026 6.11123 34.6852 6.15253L34.52 6.77191C34.4375 6.73061 34.3549 6.73061 34.2723 6.68932C34.1897 6.68932 34.1071 6.64803 34.0245 6.64803C33.9419 6.64803 33.8181 6.64803 33.7355 6.68932C33.6529 6.73061 33.5703 6.77191 33.529 6.85449C33.4877 6.93707 33.4052 7.01966 33.3639 7.10224C33.3226 7.18483 33.3226 7.3087 33.3226 7.43258V9.04296H32.6619V6.06994H33.2813V6.40028C33.3639 6.2764 33.4877 6.15253 33.6529 6.06994C33.8594 6.11123 34.0245 6.06994 34.1897 6.06994ZM36.3369 6.06994C36.5433 6.06994 36.7498 6.11123 36.8737 6.19382C37.0388 6.2764 37.1627 6.35899 37.2453 6.52415V4.66602H37.906V9.12555H37.2453V8.75392C37.1627 8.8778 36.9976 9.00167 36.8737 9.08426C36.7085 9.16684 36.5433 9.20813 36.3369 9.20813C36.1304 9.20813 35.924 9.16684 35.7588 9.08426C35.5936 9.00167 35.4285 8.91909 35.3046 8.75392C35.1807 8.63004 35.0568 8.46488 34.9742 8.25842C34.8917 8.05196 34.8504 7.8455 34.8504 7.63904C34.8504 7.43258 34.8917 7.18483 34.9742 7.01966C35.0568 6.8132 35.1394 6.64803 35.3046 6.52415C35.4285 6.40028 35.5936 6.2764 35.7588 6.19382C35.924 6.11123 36.1304 6.06994 36.3369 6.06994ZM38.6492 8.8365C38.6905 8.8365 38.6905 8.8365 38.7318 8.8365C38.7731 8.8365 38.7731 8.8778 38.7731 8.8778L38.8144 8.91909C38.8144 8.96038 38.8144 8.96038 38.8144 9.00167C38.8144 9.04296 38.8144 9.04296 38.8144 9.08426C38.8144 9.12555 38.7731 9.12555 38.7731 9.12555L38.7318 9.16684C38.6905 9.16684 38.6905 9.16684 38.6492 9.16684C38.6079 9.16684 38.6079 9.16684 38.5667 9.16684C38.5254 9.16684 38.5254 9.12555 38.5254 9.12555L38.4841 9.08426C38.4841 9.04296 38.4841 9.04296 38.4841 9.00167C38.4841 8.96038 38.4841 8.96038 38.4841 8.91909C38.4841 8.8778 38.5254 8.8778 38.5254 8.8778L38.5667 8.8365C38.6079 8.8365 38.6079 8.8365 38.6492 8.8365ZM38.6492 9.16684H38.6905C38.6905 9.16684 38.7318 9.16684 38.7318 9.12555L38.7731 9.08426V9.04296V9.00167C38.7731 9.00167 38.7731 8.96038 38.7318 8.96038L38.6905 8.91909H38.6492H38.6079C38.6079 8.91909 38.5667 8.91909 38.5667 8.96038L38.5254 9.00167V9.04296V9.08426C38.5254 9.08426 38.5254 9.12555 38.5667 9.12555L38.6079 9.16684H38.6492ZM38.6492 8.91909C38.6905 8.91909 38.6905 8.91909 38.6905 8.91909V8.96038V9.00167H38.6492L38.6905 9.08426H38.6492L38.6079 9.00167V9.08426H38.5667V8.91909H38.6492ZM38.6079 8.96038V9.00167H38.6492C38.6492 9.00167 38.6492 9.00167 38.6905 9.00167C38.6905 9.00167 38.6905 9.00167 38.6492 9.00167H38.6079V8.96038ZM36.4195 6.68932C36.2956 6.68932 36.1717 6.73061 36.0478 6.77191C35.924 6.8132 35.8414 6.89578 35.7588 6.97837C35.6762 7.06095 35.6349 7.14353 35.5936 7.26741C35.511 7.39129 35.511 7.51516 35.511 7.63904C35.511 7.76291 35.5523 7.88679 35.5523 8.01066C35.5936 8.13454 35.6349 8.21712 35.7175 8.29971C35.8001 8.38229 35.8827 8.46488 36.0065 8.50617C36.1304 8.54746 36.2543 8.58875 36.3782 8.58875C36.5021 8.58875 36.6259 8.54746 36.7498 8.50617C36.8737 8.46488 36.9563 8.38229 37.0388 8.29971C37.1214 8.21712 37.1627 8.13454 37.204 8.01066C37.2453 7.88679 37.2866 7.76291 37.2866 7.63904C37.2866 7.51516 37.2453 7.39129 37.204 7.26741C37.1627 7.14353 37.0801 7.06095 37.0388 6.97837C36.9563 6.89578 36.8737 6.8132 36.7498 6.77191C36.6672 6.68932 36.5433 6.68932 36.4195 6.68932Z" fill="#E41522"/>
</svg>
