<svg width="35" height="21" viewBox="0 0 35 21" fill="none" xmlns="http://www.w3.org/2000/svg">
<path d="M34.9999 10.5C34.9999 16.2615 30.3153 21 24.4999 21C18.7384 21 13.9999 16.2615 13.9999 10.5C13.9999 4.73846 18.6846 0 24.4461 0C30.3153 0 34.9999 4.73846 34.9999 10.5Z" fill="#F9B50B"/>
<path d="M20.9462 10.5538C20.9462 9.8 20.8385 9.04615 20.7308 8.34615H14.2692C14.3231 7.96923 14.4308 7.64615 14.5385 7.21538H20.3C20.1923 6.83846 20.0308 6.46154 19.8692 6.08462H14.9692C15.1308 5.70769 15.3462 5.38462 15.5615 4.95385H19.2769C19.0615 4.57692 18.7923 4.2 18.4692 3.82308H16.4231C16.7462 3.44615 17.0692 3.12308 17.5 2.74615C15.6692 1.02308 13.1923 0 10.4462 0C4.73846 0.161538 0 4.73846 0 10.5C0 16.2615 4.68462 21 10.5 21C13.2462 21 15.6692 19.9231 17.5538 18.2538C17.9308 17.9308 18.2538 17.5538 18.6308 17.1231H16.4769C16.2077 16.8 15.9385 16.4231 15.7231 16.0462H19.3846C19.6 15.7231 19.8154 15.3462 19.9769 14.9154H15.0769C14.9154 14.5923 14.7538 14.2154 14.6462 13.7846H20.4077C20.7308 12.8154 20.9462 11.7385 20.9462 10.5538Z" fill="#C8191C"/>
<path d="M14.2154 13.1925L14.377 12.2233C14.3231 12.2233 14.2154 12.2771 14.1077 12.2771C13.7308 12.2771 13.677 12.0617 13.7308 11.954L14.0539 10.0156H14.6462L14.8077 8.93863H14.2693L14.377 8.29248H13.2462C13.2462 8.29248 12.6001 11.954 12.6001 12.3848C12.6001 13.0309 12.977 13.354 13.5154 13.354C13.8385 13.354 14.1077 13.2463 14.2154 13.1925Z" fill="white"/>
<path d="M14.5923 11.4154C14.5923 12.9769 15.6692 13.3539 16.5307 13.3539C17.3384 13.3539 17.7153 13.1923 17.7153 13.1923L17.9307 12.1154C17.9307 12.1154 17.3384 12.3846 16.7461 12.3846C15.5077 12.3846 15.723 11.4693 15.723 11.4693H17.9846C17.9846 11.4693 18.1461 10.7693 18.1461 10.4462C18.1461 9.74618 17.7692 8.83079 16.5307 8.83079C15.4538 8.77695 14.5923 10.0154 14.5923 11.4154ZM16.5307 9.80003C17.123 9.80003 17.0153 10.5 17.0153 10.5539H15.7769C15.8307 10.5 15.9384 9.80003 16.5307 9.80003Z" fill="white"/>
<path d="M23.5847 13.1924L23.8 11.9539C23.8 11.9539 23.2616 12.2231 22.8308 12.2231C22.077 12.2231 21.7 11.6308 21.7 10.9308C21.7 9.58468 22.3462 8.88468 23.1539 8.88468C23.6924 8.88468 24.177 9.20775 24.177 9.20775L24.3385 8.02314C24.3385 8.02314 23.6923 7.75391 23.0462 7.75391C21.7539 7.75391 20.5154 8.88468 20.5154 10.9847C20.5154 12.3847 21.1616 13.3001 22.5077 13.3001C22.9923 13.3539 23.5847 13.1924 23.5847 13.1924Z" fill="white"/>
<path d="M8.13074 8.77686C7.37689 8.77686 6.78459 8.99224 6.78459 8.99224L6.62305 9.96147C6.62305 9.96147 7.10766 9.74609 7.86151 9.74609C8.23843 9.74609 8.56151 9.79993 8.56151 10.123C8.56151 10.3384 8.50766 10.3922 8.50766 10.3922H8.02305C7.05382 10.3922 6.03074 10.7692 6.03074 12.0615C6.03074 13.0845 6.67689 13.2999 7.10766 13.2999C7.86151 13.2999 8.23843 12.8153 8.29228 12.8153L8.23843 13.2461H9.15382L9.58458 10.1769C9.58458 8.8307 8.50766 8.77686 8.13074 8.77686ZM8.34612 11.2538C8.34612 11.4153 8.23843 12.3307 7.59228 12.3307C7.2692 12.3307 7.16151 12.0615 7.16151 11.8999C7.16151 11.6307 7.32305 11.2538 8.18458 11.2538C8.29228 11.2538 8.34612 11.2538 8.34612 11.2538Z" fill="white"/>
<path d="M10.6615 13.3001C10.9307 13.3001 12.3307 13.3539 12.3307 11.8462C12.3307 10.4462 10.9846 10.7155 10.9846 10.177C10.9846 9.90776 11.2 9.80007 11.5769 9.80007C11.7384 9.80007 12.3307 9.85391 12.3307 9.85391L12.4923 8.83084C12.4923 8.83084 12.1154 8.72314 11.4154 8.72314C10.6077 8.72314 9.74612 9.04622 9.74612 10.177C9.74612 11.4693 11.1461 11.3616 11.1461 11.8462C11.1461 12.1693 10.7692 12.2231 10.5 12.2231C10.0154 12.2231 9.47689 12.0616 9.47689 12.0616L9.31535 13.0847C9.42305 13.1924 9.74612 13.3001 10.6615 13.3001Z" fill="white"/>
<path d="M32.8461 7.91553L32.6307 9.42322C32.6307 9.42322 32.2 8.88476 31.5538 8.88476C30.5307 8.88476 29.6692 10.1232 29.6692 11.5771C29.6692 12.4925 30.1 13.4078 31.0692 13.4078C31.7154 13.4078 32.1461 12.9771 32.1461 12.9771L32.0923 13.354H33.223L34.0307 8.02322L32.8461 7.91553ZM32.3077 10.8232C32.3077 11.4155 32.0384 12.2232 31.3923 12.2232C31.0154 12.2232 30.8 11.9001 30.8 11.3078C30.8 10.3925 31.1769 9.85399 31.7154 9.85399C32.0923 9.90783 32.3077 10.1771 32.3077 10.8232Z" fill="white"/>
<path d="M2.04616 13.2463L2.69232 9.26168L2.80001 13.2463H3.55385L5.0077 9.26168L4.41539 13.2463H5.60001L6.51539 7.91553H4.68462L3.55385 11.2001L3.50001 7.91553H1.88462L0.969238 13.2463H2.04616Z" fill="white"/>
<path d="M19.2769 13.2463C19.6 11.4155 19.6539 9.90784 20.4615 10.1771C20.5692 9.47707 20.7308 9.154 20.8385 8.88477H20.6231C20.1385 8.88477 19.7077 9.53092 19.7077 9.53092L19.8154 8.93861H18.7385L18.0385 13.2463H19.2769Z" fill="white"/>
<path d="M26.1692 8.77686C25.4154 8.77686 24.823 8.99224 24.823 8.99224L24.6615 9.96147C24.6615 9.96147 25.1461 9.74609 25.9 9.74609C26.2769 9.74609 26.6 9.79993 26.6 10.123C26.6 10.3384 26.5461 10.3922 26.5461 10.3922H26.0615C25.0923 10.3922 24.0692 10.7692 24.0692 12.0615C24.0692 13.0845 24.7154 13.2999 25.1461 13.2999C25.9 13.2999 26.2769 12.8153 26.3307 12.8153L26.2769 13.2461H27.3L27.7307 10.1769C27.7307 8.8307 26.5461 8.77686 26.1692 8.77686ZM26.4384 11.2538C26.4384 11.4153 26.3307 12.3307 25.6846 12.3307C25.3615 12.3307 25.2538 12.0615 25.2538 11.8999C25.2538 11.6307 25.4154 11.2538 26.2769 11.2538C26.3846 11.2538 26.3846 11.2538 26.4384 11.2538Z" fill="white"/>
<path d="M28.5923 13.2463C28.9154 11.4155 28.9692 9.90784 29.7769 10.1771C29.8846 9.47707 30.0461 9.154 30.1538 8.88477H29.9384C29.4538 8.88477 29.0231 9.53092 29.0231 9.53092L29.1307 8.93861H28.0538L27.3538 13.2463H28.5923Z" fill="white"/>
</svg>
