<svg width="50" height="15" viewBox="0 0 50 15" fill="none" xmlns="http://www.w3.org/2000/svg">
<path fill-rule="evenodd" clip-rule="evenodd" d="M1.9224 5.43929C1.81658 5.70384 1.76366 5.98602 1.69312 6.26821C1.51675 7.11477 1.37566 8.01424 1.18166 8.8608C0.793649 8.8608 0.388007 8.8608 0 8.8608C0.440917 6.00366 1.2522 3.21707 1.60493 0.148286C1.99294 0.148286 2.38095 0.148286 2.75132 0.148286C2.69841 0.430473 2.62786 0.695023 2.59259 0.97721C2.59259 0.994847 2.55732 1.01248 2.55732 1.04776C3.08642 0.359926 3.8977 -0.116263 5.18518 0.0248299C6.45502 0.148287 7.14285 1.15358 7.19576 2.33523C7.31922 4.59273 6.11992 6.63858 3.65079 6.46221C2.8395 6.4093 2.22222 6.10948 1.9224 5.43929ZM3.58024 1.15358C2.53968 1.68268 1.53439 4.11654 2.71605 5.1571C3.49206 5.84493 4.70899 5.47456 5.22045 4.83964C5.80246 4.11654 6.33156 2.03541 5.44973 1.29467C5.14991 1.04776 4.67372 0.959573 4.2328 1.01248C3.91534 1.03012 3.75661 1.06539 3.58024 1.15358Z" fill="#030000"/>
<path fill-rule="evenodd" clip-rule="evenodd" d="M12.6454 6.33891C12.2751 6.33891 11.9047 6.33891 11.5167 6.33891C11.5696 5.98617 11.6401 5.65108 11.7107 5.31598C11.3756 5.80981 10.7936 6.37418 9.94701 6.46236C8.73008 6.58582 7.61897 5.96854 7.51315 4.96325C7.47788 4.62815 7.49552 4.08141 7.7777 3.65813C8.48317 2.54702 10.3174 2.47648 12.134 2.52939C12.6807 0.518808 9.75301 0.81863 8.74772 1.47119C8.80063 1.08318 8.88881 0.71281 8.94172 0.324803C10.7583 -0.23957 13.2098 -0.0984759 13.3509 1.85919C13.4038 2.63521 13.1745 3.39358 13.0334 4.13432C12.8923 4.85743 12.7512 5.56289 12.6454 6.33891ZM8.80063 4.73397C8.8359 5.24543 9.40028 5.52762 9.85883 5.52762C11.111 5.54526 11.7107 4.45178 11.9047 3.37595C10.4937 3.3054 8.71245 3.48177 8.80063 4.73397Z" fill="#030000"/>
<path fill-rule="evenodd" clip-rule="evenodd" d="M15.3616 0.166016C15.6261 1.80623 15.9436 3.39353 16.1905 5.06901C17.1252 3.46407 17.9894 1.78859 18.9065 0.166016C19.3298 0.166016 19.7531 0.166016 20.194 0.166016C19.0653 2.21187 17.7425 4.45173 16.4727 6.6034C16.0847 7.27359 15.6967 8.17306 15.1323 8.61398C14.6385 9.00199 13.6861 9.09017 12.8924 8.93144C12.9101 8.5787 13.0335 8.31415 13.0512 7.97906C13.2099 7.96142 13.4039 8.06724 13.5979 8.06724C14.4621 8.06724 14.9383 7.27359 15.2557 6.65631C14.8854 4.52227 14.4797 2.40587 14.1094 0.254199C14.0741 0.218926 14.0917 0.201289 14.1094 0.166016C14.5326 0.166016 14.9559 0.166016 15.3616 0.166016Z" fill="#030000"/>
<path fill-rule="evenodd" clip-rule="evenodd" d="M20.7054 9.95423C20.4408 11.4533 20.1057 12.8643 19.8412 14.3634C19.0123 14.3634 18.1834 14.3634 17.3368 14.3634C17.7248 12.5292 18.0599 10.7126 18.4303 8.89603C18.8006 7.09709 19.2416 5.29815 19.4532 3.39339C20.1234 3.34048 21.0229 3.34048 21.693 3.39339C21.6754 3.81667 21.5696 4.1694 21.5343 4.57504C22.1869 3.92249 22.8923 3.05829 24.3915 3.19938C25.82 3.34048 26.6137 4.53977 26.7195 6.05653C26.9135 8.66675 25.6437 11.2241 23.3509 11.4004C21.9223 11.5063 21.2521 10.8537 20.7054 9.95423ZM21.7107 6.05653C21.1287 6.88545 20.9347 8.47275 21.6754 9.09003C22.134 9.47804 22.9805 9.28404 23.3685 8.96658C23.8624 8.56093 24.2151 7.78492 24.1975 6.8149C24.1798 5.93307 23.7918 5.19233 22.8571 5.31578C22.3103 5.38633 21.9752 5.66852 21.7107 6.05653Z" fill="#009651"/>
<path fill-rule="evenodd" clip-rule="evenodd" d="M33.5802 11.2419C32.9277 11.2242 32.1869 11.2772 31.5873 11.2066C31.6578 10.8539 31.6578 10.413 31.7108 10.0602C31.5168 10.2542 31.3757 10.5364 31.1287 10.7657C30.3175 11.5064 28.5009 11.6652 27.6014 10.9244C26.6314 10.1131 26.7901 8.17311 27.6014 7.34418C28.5362 6.37417 30.2998 6.12725 32.1164 6.32126C32.2928 5.58052 31.7989 5.12196 31.1817 5.03378C30.2822 4.91032 29.0829 5.29833 28.5538 5.61579C28.6596 4.98087 28.6949 4.29304 28.8183 3.65812C29.4533 3.42884 30.0529 3.25248 30.8113 3.2172C32.91 3.07611 34.3563 3.78158 34.4973 5.58052C34.5679 6.5329 34.2857 7.52055 34.0741 8.45529C33.8801 9.3724 33.739 10.3071 33.5802 11.2419ZM31.0582 7.71455C30.2998 7.73219 29.4709 7.9791 29.2945 8.54348C29.1534 9.0373 29.5062 9.49586 29.8765 9.5664C31.0406 9.81332 31.8342 8.66693 31.9224 7.74983C31.6578 7.69692 31.2698 7.71455 31.0582 7.71455Z" fill="#009651"/>
<path fill-rule="evenodd" clip-rule="evenodd" d="M41.2698 3.65798C41.1464 4.2929 40.9171 4.822 40.7936 5.45692C40.1763 5.24528 39.4356 4.92782 38.4656 5.03364C38.0776 5.08655 37.6896 5.28055 37.6896 5.66856C37.7072 6.14475 38.4303 6.32111 38.8712 6.49748C39.4885 6.76203 40.2293 7.11476 40.5291 7.64386C41.0405 8.56097 40.5291 9.90136 39.9823 10.4657C39.5238 10.9419 38.6596 11.3299 37.7778 11.4005C36.6314 11.4887 35.4321 11.277 34.4444 11.0125C34.5855 10.3599 34.7442 9.76026 34.9206 9.16062C35.5732 9.42517 36.3139 9.67208 37.3192 9.5839C37.7954 9.53099 38.3245 9.37226 38.2539 8.80788C38.201 8.34933 37.5132 8.1906 37.0017 7.97896C36.0494 7.59095 35.3439 7.09713 35.3439 5.80965C35.3439 3.16415 39.0123 2.72323 41.2698 3.65798Z" fill="#009651"/>
<path fill-rule="evenodd" clip-rule="evenodd" d="M47.5132 3.65807C47.3721 4.27535 47.1781 4.85736 47.0018 5.45701C46.4197 5.22773 45.6614 4.92791 44.6914 5.03373C44.3034 5.069 43.9153 5.263 43.9153 5.66864C43.933 6.16247 44.8148 6.42702 45.2205 6.60339C46.0494 6.95612 46.843 7.34413 46.9489 8.29651C47.0547 9.23125 46.6667 9.98963 46.1199 10.5011C45.6085 10.9949 44.8501 11.33 44.0035 11.4006C42.8395 11.4887 41.7108 11.2771 40.6702 11.0126C40.776 10.3424 40.9877 9.79562 41.1111 9.1607C41.5873 9.3018 42.0459 9.53108 42.6102 9.58399C43.4039 9.65453 44.4797 9.60162 44.4621 8.91379C44.4444 8.17305 42.9101 8.01432 42.3104 7.53813C41.6579 7.02667 41.2522 5.77447 41.7637 4.75154C42.6102 3.16424 45.5203 2.81151 47.5132 3.65807Z" fill="#009651"/>
<path d="M48.4479 4.46916H48.1304L48.1481 4.3457H48.9241L48.9064 4.46916H48.589L48.4126 5.43918H48.2715L48.4479 4.46916Z" fill="#009651"/>
<path d="M49.7531 5.43918L49.8237 4.85717C49.8413 4.75135 49.859 4.59262 49.8766 4.4868C49.8237 4.59262 49.7708 4.73371 49.7002 4.83953L49.3828 5.43918H49.2769L49.1888 4.85717C49.1711 4.73371 49.1535 4.61025 49.1535 4.4868C49.1358 4.59262 49.1006 4.75135 49.0653 4.85717L48.9242 5.43918H48.8008L49.0829 4.3457H49.2593L49.3475 4.96299C49.3651 5.05117 49.3651 5.15699 49.3651 5.24517C49.4004 5.15699 49.4533 5.06881 49.4886 4.98062L49.8237 4.3457H50L49.859 5.43918H49.7531Z" fill="#009651"/>
</svg>
