<svg width="56" height="56" viewBox="0 0 56 56" fill="none" xmlns="http://www.w3.org/2000/svg">
<path d="M28 30.7427C29.5148 30.7427 30.7428 29.5147 30.7428 27.9999C30.7428 26.4851 29.5148 25.2571 28 25.2571C26.4852 25.2571 25.2572 26.4851 25.2572 27.9999C25.2572 29.5147 26.4852 30.7427 28 30.7427Z" fill="#61DAFB"/>
<path fill-rule="evenodd" clip-rule="evenodd" d="M15.1091 26.555C14.4879 27.1157 14.2824 27.6057 14.2824 28.0001C14.2824 28.3944 14.4879 28.8844 15.1091 29.4451C15.7301 30.0057 16.6849 30.5564 17.9498 31.0394C20.4728 32.0027 24.0258 32.6195 28 32.6195C31.9742 32.6195 35.5272 32.0027 38.0502 31.0394C39.3152 30.5564 40.2699 30.0057 40.891 29.4451C41.5121 28.8844 41.7176 28.3944 41.7176 28.0001C41.7176 27.6057 41.5121 27.1157 40.891 26.555C40.2699 25.9944 39.3152 25.4437 38.0502 24.9607C35.5272 23.9974 31.9742 23.3806 28 23.3806C24.0258 23.3806 20.4728 23.9974 17.9498 24.9607C16.6849 25.4437 15.7301 25.9944 15.1091 26.555ZM17.2364 23.0923C20.0401 22.0218 23.8459 21.3806 28 21.3806C32.1541 21.3806 35.9599 22.0218 38.7636 23.0923C40.1621 23.6262 41.3626 24.2864 42.2311 25.0704C43.0995 25.8543 43.7176 26.8426 43.7176 28.0001C43.7176 29.1575 43.0995 30.1458 42.2311 30.9297C41.3626 31.7137 40.1621 32.3739 38.7636 32.9078C35.9599 33.9784 32.1541 34.6195 28 34.6195C23.8459 34.6195 20.0401 33.9784 17.2364 32.9078C15.8379 32.3739 14.6374 31.7137 13.7689 30.9297C12.9005 30.1458 12.2824 29.1575 12.2824 28.0001C12.2824 26.8426 12.9005 25.8543 13.7689 25.0704C14.6374 24.2864 15.8379 23.6262 17.2364 23.0923Z" fill="#61DAFB"/>
<path fill-rule="evenodd" clip-rule="evenodd" d="M22.806 16.1135C22.0098 15.856 21.4827 15.923 21.1412 16.1201C20.7997 16.3173 20.4781 16.7403 20.3031 17.5586C20.1281 18.3767 20.1285 19.4789 20.3427 20.8159C20.77 23.4825 22.0123 26.8679 23.9994 30.3097C25.9865 33.7515 28.2972 36.5201 30.393 38.2234C31.4437 39.0773 32.398 39.6289 33.194 39.8864C33.9902 40.1439 34.5173 40.0769 34.8588 39.8798C35.2003 39.6826 35.5219 39.2596 35.6969 38.4413C35.8719 37.6232 35.8714 36.521 35.6572 35.184C35.23 32.5174 33.9877 29.132 32.0006 25.6902C30.0134 22.2484 27.7028 19.4798 25.607 17.7765C24.5563 16.9226 23.602 16.371 22.806 16.1135ZM26.8684 16.2245C29.1974 18.1173 31.6556 21.0927 33.7326 24.6902C35.8096 28.2878 37.1573 31.9043 37.6321 34.8676C37.8689 36.3457 37.8974 37.7155 37.6527 38.8596C37.408 40.0036 36.8612 41.0331 35.8588 41.6118C34.8564 42.1905 33.6915 42.1494 32.5784 41.7893C31.4652 41.4291 30.2932 40.7195 29.1315 39.7754C26.8026 37.8826 24.3444 34.9072 22.2674 31.3097C20.1903 27.7121 18.8427 24.0956 18.3679 21.1323C18.1311 19.6542 18.1026 18.2844 18.3473 17.1403C18.592 15.9963 19.1388 14.9668 20.1412 14.3881C21.1435 13.8094 22.3085 13.8505 23.4216 14.2106C24.5348 14.5708 25.7068 15.2804 26.8684 16.2245Z" fill="#61DAFB"/>
<path fill-rule="evenodd" clip-rule="evenodd" d="M35.6969 17.5585C35.5219 16.7403 35.2003 16.3173 34.8588 16.1201C34.5173 15.9229 33.9902 15.8559 33.194 16.1135C32.398 16.371 31.4437 16.9225 30.393 17.7765C28.2972 19.4798 25.9866 22.2484 23.9994 25.6902C22.0123 29.1319 20.77 32.5173 20.3428 35.184C20.1286 36.5209 20.1281 37.6231 20.3031 38.4412C20.4781 39.2595 20.7997 39.6825 21.1412 39.8797C21.4827 40.0769 22.0098 40.1439 22.806 39.8863C23.602 39.6288 24.5563 39.0773 25.607 38.2233C27.7028 36.52 30.0135 33.7514 32.0006 30.3096C33.9877 26.8678 35.23 23.4824 35.6573 20.8158C35.8715 19.4789 35.8719 18.3766 35.6969 17.5585ZM37.6321 21.1322C37.1573 24.0956 35.8097 27.7121 33.7326 31.3096C31.6556 34.9071 29.1974 37.8825 26.8685 39.7753C25.7068 40.7194 24.5348 41.4291 23.4216 41.7892C22.3085 42.1493 21.1436 42.1904 20.1412 41.6117C19.1388 41.033 18.592 40.0036 18.3473 38.8596C18.1026 37.7154 18.1311 36.3456 18.3679 34.8676C18.8427 31.9042 20.1904 28.2877 22.2674 24.6902C24.3444 21.0926 26.8026 18.1173 29.1316 16.2244C30.2932 15.2803 31.4652 14.5707 32.5784 14.2106C33.6915 13.8505 34.8565 13.8093 35.8588 14.388C36.8612 14.9667 37.408 15.9962 37.6527 17.1402C37.8974 18.2843 37.8689 19.6541 37.6321 21.1322Z" fill="#61DAFB"/>
</svg>
