<svg width="40" height="40" viewBox="0 0 40 40" fill="none" xmlns="http://www.w3.org/2000/svg">
<rect x="0.5" y="0.5" width="39" height="39" rx="19.5" stroke="white"/>
<path d="M25.6508 16.9062C25.6508 17.043 25.6508 17.1523 25.6508 17.2891C25.6508 21.0898 22.7797 25.4375 17.5023 25.4375C15.8617 25.4375 14.3578 24.9727 13.1 24.1523C13.3187 24.1797 13.5375 24.207 13.7836 24.207C15.1234 24.207 16.3539 23.7422 17.3383 22.9766C16.0805 22.9492 15.0141 22.1289 14.6586 20.9805C14.85 21.0078 15.0141 21.0352 15.2055 21.0352C15.4516 21.0352 15.725 20.9805 15.9437 20.9258C14.6312 20.6523 13.6469 19.5039 13.6469 18.1094V18.082C14.0297 18.3008 14.4945 18.4102 14.9594 18.4375C14.1664 17.918 13.6742 17.043 13.6742 16.0586C13.6742 15.5117 13.8109 15.0195 14.057 14.6094C15.4789 16.332 17.6117 17.4805 19.9906 17.6172C19.9359 17.3984 19.9086 17.1797 19.9086 16.9609C19.9086 15.375 21.1937 14.0898 22.7797 14.0898C23.6 14.0898 24.3383 14.418 24.8852 14.9922C25.5141 14.8555 26.143 14.6094 26.6898 14.2812C26.4711 14.9648 26.0336 15.5117 25.432 15.8672C26.0062 15.8125 26.5805 15.6484 27.0727 15.4297C26.6898 16.0039 26.1977 16.4961 25.6508 16.9062Z" fill="white"/>
</svg>
