<svg width="64" height="32" viewBox="0 0 64 32" fill="none" xmlns="http://www.w3.org/2000/svg">
<path fill-rule="evenodd" clip-rule="evenodd" d="M31.7906 9.2475L28.9179 22.7875H25.4432L28.3162 9.2475H31.7906ZM46.4089 17.9906L48.2381 12.9056L49.2903 17.9906H46.4089ZM50.2875 22.7875H53.5001L50.6931 9.2475H47.7295C47.0613 9.2475 46.4985 9.638 46.2493 10.2401L41.0355 22.7875H44.6847L45.4091 20.7655H49.8662L50.2875 22.7875ZM41.2169 18.3671C41.232 14.7939 36.317 14.5957 36.3497 12.999C36.3604 12.5137 36.8192 11.9972 37.8231 11.8651C38.3206 11.8004 39.6936 11.748 41.25 12.4709L41.8587 9.59839C41.0224 9.29367 39.9467 9 38.6085 9C35.1735 9 32.757 10.8394 32.7377 13.4755C32.7158 15.4249 34.4641 16.5119 35.7783 17.1611C37.1332 17.8245 37.5874 18.2503 37.5809 18.8431C37.5715 19.7515 36.5 20.1538 35.5029 20.1688C33.7549 20.1965 32.7419 19.6928 31.9343 19.3131L31.3037 22.2816C32.1168 22.6566 33.6153 22.9834 35.1665 23C38.8181 23 41.2062 21.1822 41.2169 18.3671ZM26.8258 9.24752L21.196 22.7875H17.5234L14.7527 11.9816C14.5849 11.3174 14.4385 11.0729 13.9277 10.7924C13.0922 10.3346 11.7127 9.90669 10.5 9.64065L10.582 9.24752H16.4945C17.2478 9.24752 17.9251 9.75275 18.0974 10.6274L19.5609 18.463L23.1755 9.24752H26.8258Z" fill="#182E66"/>
</svg>
